<svg xmlns="http://www.w3.org/2000/svg" viewBox="0 0 225.000000 199.000000">
    <g transform="translate(0.000000,199.000000) scale(0.100000,-0.100000)" fill="#4775ce">
      <path d="M551 1416 l-552 -552 31 -29 31 -29 62 62 62 62 460 -460 460 -460
      559 552 558 552 -26 23 c-15 13 -32 23 -37 23 -6 0 -34 -23 -64 -51 -30 -28
      -58 -49 -64 -47 -5 1 -216 206 -468 455 l-460 452 -552 -553z m984 -856 l-430
      -430 -430 430 -430 430 430 430 430 430 430 -430 430 -430 -430 -430z"/>
      <path d="M900 1250 l0 -40 220 0 220 0 0 40 0 40 -220 0 -220 0 0 -40z"/>
      <path d="M740 1070 l0 -40 370 0 370 0 0 40 0 40 -370 0 -370 0 0 -40z"/>
      <path d="M740 890 l0 -40 370 0 370 0 0 40 0 40 -370 0 -370 0 0 -40z"/>
      <path d="M900 710 l0 -40 220 0 220 0 0 40 0 40 -220 0 -220 0 0 -40z"/>
    </g>
</svg>